<svg xmlns="http://www.w3.org/2000/svg" xmlns:xlink="http://www.w3.org/1999/xlink" contentStyleType="text/css" data-diagram-type="DESCRIPTION" height="839px" preserveAspectRatio="none" style="width:1363px;height:839px;background:#FFFFFF;" version="1.1" viewBox="0 0 1363 839" width="1363px" zoomAndPan="magnify"><title>Grafo Causa-Efecto (Registro de Transacciones)</title><defs/><g><g class="title" data-source-line="42"><text fill="#000000" font-family="'Lato'" font-size="22" font-weight="bold" lengthAdjust="spacing" textLength="465.3076" x="444.8362" y="36.7138">Grafo Causa-Efecto (Registro de Transacciones)</text></g><!--entity C1--><g class="entity" data-entity="C1" data-source-line="45" data-uid="ent0002" id="entity_C1"><rect fill="#E3F2FD" height="48.8002" rx="2.5" ry="2.5" style="stroke:#2196F3;stroke-width:1.5;" width="133.0168" x="12" y="186.8998"/><text fill="#0D47A1" font-family="'Lato'" font-size="12" font-style="italic" lengthAdjust="spacing" textLength="39.9843" x="58.5163" y="208.7439">&#171;Cause&#187;</text><text fill="#0D47A1" font-family="'Lato'" font-size="12" lengthAdjust="spacing" textLength="113.0168" x="22" y="223.144">C1: Gasto (EXPENSE)</text></g><!--entity C2--><g class="entity" data-entity="C2" data-source-line="46" data-uid="ent0003" id="entity_C2"><rect fill="#E3F2FD" height="48.8002" rx="2.5" ry="2.5" style="stroke:#2196F3;stroke-width:1.5;" width="137.7448" x="1158.5" y="186.8998"/><text fill="#0D47A1" font-family="'Lato'" font-size="12" font-style="italic" lengthAdjust="spacing" textLength="39.9843" x="1207.3803" y="208.7439">&#171;Cause&#187;</text><text fill="#0D47A1" font-family="'Lato'" font-size="12" lengthAdjust="spacing" textLength="117.7448" x="1168.5" y="223.144">C2: Ingreso (INCOME)</text></g><!--entity C3--><g class="entity" data-entity="C3" data-source-line="47" data-uid="ent0004" id="entity_C3"><rect fill="#E3F2FD" height="48.8002" rx="2.5" ry="2.5" style="stroke:#2196F3;stroke-width:1.5;" width="151.1669" x="719" y="59.3998"/><text fill="#0D47A1" font-family="'Lato'" font-size="12" font-style="italic" lengthAdjust="spacing" textLength="39.9843" x="774.5913" y="81.2439">&#171;Cause&#187;</text><text fill="#0D47A1" font-family="'Lato'" font-size="12" lengthAdjust="spacing" textLength="131.1669" x="729" y="95.644">C3: Category ID provisto</text></g><!--entity C4--><g class="entity" data-entity="C4" data-source-line="48" data-uid="ent0005" id="entity_C4"><rect fill="#E3F2FD" height="48.8002" rx="2.5" ry="2.5" style="stroke:#2196F3;stroke-width:1.5;" width="156.5129" x="877" y="186.8998"/><text fill="#0D47A1" font-family="'Lato'" font-size="12" font-style="italic" lengthAdjust="spacing" textLength="39.9843" x="935.2643" y="208.7439">&#171;Cause&#187;</text><text fill="#0D47A1" font-family="'Lato'" font-size="12" lengthAdjust="spacing" textLength="136.5129" x="887" y="223.144">C4: Cuenta activa y existe</text></g><!--entity C5--><g class="entity" data-entity="C5" data-source-line="49" data-uid="ent0006" id="entity_C5"><rect fill="#E3F2FD" height="48.8002" rx="2.5" ry="2.5" style="stroke:#2196F3;stroke-width:1.5;" width="96.8605" x="745" y="186.8998"/><text fill="#0D47A1" font-family="'Lato'" font-size="12" font-style="italic" lengthAdjust="spacing" textLength="39.9843" x="773.4381" y="208.7439">&#171;Cause&#187;</text><text fill="#0D47A1" font-family="'Lato'" font-size="12" lengthAdjust="spacing" textLength="76.8605" x="755" y="223.144">C5: Monto &gt; 0</text></g><!--entity C6--><g class="entity" data-entity="C6" data-source-line="50" data-uid="ent0007" id="entity_C6"><rect fill="#E3F2FD" height="48.8002" rx="2.5" ry="2.5" style="stroke:#2196F3;stroke-width:1.5;" width="169.383" x="270" y="186.8998"/><text fill="#0D47A1" font-family="'Lato'" font-size="12" font-style="italic" lengthAdjust="spacing" textLength="39.9843" x="334.6994" y="208.7439">&#171;Cause&#187;</text><text fill="#0D47A1" font-family="'Lato'" font-size="12" lengthAdjust="spacing" textLength="149.383" x="280" y="223.144">C6: Categor&#237;a activa y existe</text></g><!--entity C7--><g class="entity" data-entity="C7" data-source-line="51" data-uid="ent0008" id="entity_C7"><rect fill="#E3F2FD" height="48.8002" rx="2.5" ry="2.5" style="stroke:#2196F3;stroke-width:1.5;" width="164.481" x="545.5" y="186.8998"/><text fill="#0D47A1" font-family="'Lato'" font-size="12" font-style="italic" lengthAdjust="spacing" textLength="39.9843" x="607.7484" y="208.7439">&#171;Cause&#187;</text><text fill="#0D47A1" font-family="'Lato'" font-size="12" lengthAdjust="spacing" textLength="144.481" x="555.5" y="223.144">C7: Saldo cuenta &gt;= Monto</text></g><!--entity AND1--><g class="entity" data-entity="AND1" data-source-line="54" data-uid="ent0009" id="entity_AND1"><ellipse cx="484.5" cy="341.3998" fill="#FFFFFF" rx="8" ry="8" style="stroke:#000000;stroke-width:1;"/><text fill="#000000" font-family="'Lato'" font-size="12" lengthAdjust="spacing" textLength="36.4443" x="466.2779" y="370.2439">AND 1</text></g><!--entity AND2--><g class="entity" data-entity="AND2" data-source-line="55" data-uid="ent0010" id="entity_AND2"><ellipse cx="668.5" cy="471.3998" fill="#FFFFFF" rx="8" ry="8" style="stroke:#000000;stroke-width:1;"/><text fill="#000000" font-family="'Lato'" font-size="12" lengthAdjust="spacing" textLength="36.4443" x="650.2779" y="500.2439">AND 2</text></g><!--entity AND3--><g class="entity" data-entity="AND3" data-source-line="56" data-uid="ent0011" id="entity_AND3"><ellipse cx="489.5" cy="471.3998" fill="#FFFFFF" rx="8" ry="8" style="stroke:#000000;stroke-width:1;"/><text fill="#000000" font-family="'Lato'" font-size="12" lengthAdjust="spacing" textLength="36.4443" x="471.2779" y="500.2439">AND 3</text></g><!--entity AND4--><g class="entity" data-entity="AND4" data-source-line="57" data-uid="ent0012" id="entity_AND4"><ellipse cx="1074.5" cy="341.3998" fill="#FFFFFF" rx="8" ry="8" style="stroke:#000000;stroke-width:1;"/><text fill="#000000" font-family="'Lato'" font-size="12" lengthAdjust="spacing" textLength="36.4443" x="1056.2779" y="370.2439">AND 4</text></g><!--entity OR1--><g class="entity" data-entity="OR1" data-source-line="58" data-uid="ent0013" id="entity_OR1"><ellipse cx="1227.5" cy="341.3998" fill="#FFFFFF" rx="8" ry="8" style="stroke:#000000;stroke-width:1;"/><text fill="#000000" font-family="'Lato'" font-size="12" lengthAdjust="spacing" textLength="27.1562" x="1213.9219" y="370.2439">OR 1</text></g><!--entity OR2--><g class="entity" data-entity="OR2" data-source-line="59" data-uid="ent0014" id="entity_OR2"><ellipse cx="207.5" cy="341.3998" fill="#FFFFFF" rx="8" ry="8" style="stroke:#000000;stroke-width:1;"/><text fill="#000000" font-family="'Lato'" font-size="12" lengthAdjust="spacing" textLength="27.1562" x="193.9219" y="370.2439">OR 2</text></g><!--entity NOT1--><g class="entity" data-entity="NOT1" data-source-line="60" data-uid="ent0015" id="entity_NOT1"><ellipse cx="573.5" cy="341.3998" fill="#FFFFFF" rx="8" ry="8" style="stroke:#000000;stroke-width:1;"/><text fill="#000000" font-family="'Lato'" font-size="12" lengthAdjust="spacing" textLength="35.8862" x="555.5569" y="370.2439">NOT 1</text></g><!--entity NOT2--><g class="entity" data-entity="NOT2" data-source-line="61" data-uid="ent0016" id="entity_NOT2"><ellipse cx="1096.5" cy="211.3998" fill="#FFFFFF" rx="8" ry="8" style="stroke:#000000;stroke-width:1;"/><text fill="#000000" font-family="'Lato'" font-size="12" lengthAdjust="spacing" textLength="35.8862" x="1078.5569" y="240.2439">NOT 2</text></g><!--entity NOT3--><g class="entity" data-entity="NOT3" data-source-line="62" data-uid="ent0017" id="entity_NOT3"><ellipse cx="207.5" cy="211.3998" fill="#FFFFFF" rx="8" ry="8" style="stroke:#000000;stroke-width:1;"/><text fill="#000000" font-family="'Lato'" font-size="12" lengthAdjust="spacing" textLength="35.8862" x="189.5569" y="240.2439">NOT 3</text></g><!--entity NOT4--><g class="entity" data-entity="NOT4" data-source-line="63" data-uid="ent0018" id="entity_NOT4"><ellipse cx="793.5" cy="341.3998" fill="#FFFFFF" rx="8" ry="8" style="stroke:#000000;stroke-width:1;"/><text fill="#000000" font-family="'Lato'" font-size="12" lengthAdjust="spacing" textLength="35.8862" x="775.5569" y="370.2439">NOT 4</text></g><!--entity NOT5--><g class="entity" data-entity="NOT5" data-source-line="64" data-uid="ent0019" id="entity_NOT5"><ellipse cx="908.5" cy="341.3998" fill="#FFFFFF" rx="8" ry="8" style="stroke:#000000;stroke-width:1;"/><text fill="#000000" font-family="'Lato'" font-size="12" lengthAdjust="spacing" textLength="35.8862" x="890.5569" y="370.2439">NOT 5</text></g><!--entity NOT6--><g class="entity" data-entity="NOT6" data-source-line="65" data-uid="ent0020" id="entity_NOT6"><ellipse cx="370.5" cy="341.3998" fill="#FFFFFF" rx="8" ry="8" style="stroke:#000000;stroke-width:1;"/><text fill="#000000" font-family="'Lato'" font-size="12" lengthAdjust="spacing" textLength="35.8862" x="352.5569" y="370.2439">NOT 6</text></g><!--entity AND5--><g class="entity" data-entity="AND5" data-source-line="66" data-uid="ent0021" id="entity_AND5"><ellipse cx="684.5" cy="696.3998" fill="#FFFFFF" rx="8" ry="8" style="stroke:#000000;stroke-width:1;"/><text fill="#000000" font-family="'Lato'" font-size="12" lengthAdjust="spacing" textLength="36.4443" x="666.2779" y="725.2439">AND 5</text></g><!--entity E1--><g class="entity" data-entity="E1" data-source-line="69" data-uid="ent0022" id="entity_E1"><rect fill="#E8F5E9" height="48.8002" rx="2.5" ry="2.5" style="stroke:#4CAF50;stroke-width:1.5;" width="125.5707" x="955.5" y="559.3998"/><text fill="#1B5E20" font-family="'Lato'" font-size="12" font-style="italic" lengthAdjust="spacing" textLength="77.7605" x="979.4051" y="581.2439">&#171;EffectSuccess&#187;</text><text fill="#1B5E20" font-family="'Lato'" font-size="12" lengthAdjust="spacing" textLength="105.5707" x="965.5" y="595.644">E1: Registro Exitoso</text></g><!--entity E2--><g class="entity" data-entity="E2" data-source-line="70" data-uid="ent0023" id="entity_E2"><rect fill="#E8F5E9" height="48.8002" rx="2.5" ry="2.5" style="stroke:#4CAF50;stroke-width:1.5;" width="124.1427" x="789.5" y="559.3998"/><text fill="#1B5E20" font-family="'Lato'" font-size="12" font-style="italic" lengthAdjust="spacing" textLength="77.7605" x="812.6911" y="581.2439">&#171;EffectSuccess&#187;</text><text fill="#1B5E20" font-family="'Lato'" font-size="12" lengthAdjust="spacing" textLength="104.1427" x="799.5" y="595.644">E2: Actualizar Saldo</text></g><!--entity E3--><g class="entity" data-entity="E3" data-source-line="71" data-uid="ent0024" id="entity_E3"><rect fill="#FFEBEE" height="48.8002" rx="2.5" ry="2.5" style="stroke:#F44336;stroke-width:1.5;" width="158.0669" x="410.5" y="559.3998"/><text fill="#B71C1C" font-family="'Lato'" font-size="12" font-style="italic" lengthAdjust="spacing" textLength="64.0564" x="457.5052" y="581.2439">&#171;EffectError&#187;</text><text fill="#B71C1C" font-family="'Lato'" font-size="12" lengthAdjust="spacing" textLength="138.0669" x="420.5" y="595.644">E3: InsufficientFundsError</text></g><!--entity E4--><g class="entity" data-entity="E4" data-source-line="72" data-uid="ent0025" id="entity_E4"><rect fill="#FFEBEE" height="48.8002" rx="2.5" ry="2.5" style="stroke:#F44336;stroke-width:1.5;" width="96.7465" x="745" y="446.8998"/><text fill="#B71C1C" font-family="'Lato'" font-size="12" font-style="italic" lengthAdjust="spacing" textLength="64.0564" x="761.345" y="468.7439">&#171;EffectError&#187;</text><text fill="#B71C1C" font-family="'Lato'" font-size="12" lengthAdjust="spacing" textLength="76.7465" x="755" y="483.144">E4: ValueError</text></g><!--entity E5--><g class="entity" data-entity="E5" data-source-line="73" data-uid="ent0026" id="entity_E5"><rect fill="#FFF3E0" height="48.8002" rx="2.5" ry="2.5" style="stroke:#FF9800;stroke-width:1.5;" width="191.9792" x="588.5" y="784.3998"/><text fill="#E65100" font-family="'Lato'" font-size="12" font-style="italic" lengthAdjust="spacing" textLength="82.0446" x="643.4673" y="806.2439">&#171;EffectWarning&#187;</text><text fill="#E65100" font-family="'Lato'" font-size="12" lengthAdjust="spacing" textLength="171.9792" x="598.5" y="820.644">E5: Alerta Presupuesto Excedido</text></g><!--entity ExceedCond--><g class="entity" data-entity="ExceedCond" data-source-line="124" data-uid="ent0062" id="entity_ExceedCond"><rect fill="#FFFFFF" height="34.4001" rx="2.5" ry="2.5" style="stroke:#000000;stroke-width:1.5;" width="133.8688" x="617.5" y="566.8998"/><text fill="#000000" font-family="'Lato'" font-size="12" lengthAdjust="spacing" textLength="113.8688" x="627.5" y="588.7439">Suma Gastos &gt; Limite</text></g><!--link C1 to AND1--><g class="link" data-entity-1="C1" data-entity-2="AND1" data-source-line="76" data-uid="lnk27" id="link_C1_AND1"><path d="M145.17,234.1498 C151,235.7098 156.83,237.1598 162.5,238.3998 C261.47,260.1198 294.7,230.0898 388.5,268.3998 C425.53,283.5198 456.7925,312.2021 472.2125,327.7321" fill="none" id="C1-to-AND1" style="stroke:#37474F;stroke-width:1.2;"/><polygon fill="#37474F" points="476.44,331.9898,472.9372,322.7849,472.9171,328.4417,467.2602,328.4216,476.44,331.9898" style="stroke:#37474F;stroke-width:1.2;"/></g><!--link C3 to AND1--><g class="link" data-entity-1="C3" data-entity-2="AND1" data-source-line="77" data-uid="lnk28" id="link_C3_AND1"><path d="M718.8,94.4098 C659.1,105.8398 577.91,130.6998 528.5,184.3998 C488.1,228.2998 484.4564,300.4698 484.3864,326.0498" fill="none" id="C3-to-AND1" style="stroke:#37474F;stroke-width:1.2;"/><polygon fill="#37474F" points="484.37,332.0498,488.3946,323.0608,484.3837,327.0498,480.3946,323.0389,484.37,332.0498" style="stroke:#37474F;stroke-width:1.2;"/></g><!--link C4 to AND1--><g class="link" data-entity-1="C4" data-entity-2="AND1" data-source-line="78" data-uid="lnk29" id="link_C4_AND1"><path d="M920.78,235.9698 C894.66,252.4498 857.35,273.3998 821.5,284.3998 C696.78,322.6698 653.62,274.2098 529.5,314.3998 C516.11,318.7398 507.2359,323.9854 498.5159,330.1254" fill="none" id="C4-to-AND1" style="stroke:#37474F;stroke-width:1.2;"/><polygon fill="#37474F" points="493.61,333.5798,503.2717,331.6688,497.6982,330.7012,498.6659,325.1277,493.61,333.5798" style="stroke:#37474F;stroke-width:1.2;"/></g><!--link C5 to AND1--><g class="link" data-entity-1="C5" data-entity-2="AND1" data-source-line="79" data-uid="lnk30" id="link_C5_AND1"><path d="M744.86,231.6198 C739.01,233.9098 733.12,236.2098 727.5,238.3998 C639.65,272.5598 614.57,273.8098 529.5,314.3998 C516.63,320.5398 507.5957,325.8162 498.6657,331.4062" fill="none" id="C5-to-AND1" style="stroke:#37474F;stroke-width:1.2;"/><polygon fill="#37474F" points="493.58,334.5898,503.331,333.2049,497.8181,331.9368,499.0862,326.4239,493.58,334.5898" style="stroke:#37474F;stroke-width:1.2;"/></g><!--link C6 to AND1--><g class="link" data-entity-1="C6" data-entity-2="AND1" data-source-line="80" data-uid="lnk31" id="link_C6_AND1"><path d="M390.48,236.1598 C403.42,245.4898 417.72,256.7398 429.5,268.3998 C450.52,289.1998 467.072,313.2414 476.112,327.2214" fill="none" id="C6-to-AND1" style="stroke:#37474F;stroke-width:1.2;"/><polygon fill="#37474F" points="479.37,332.2598,477.8419,322.5302,476.655,328.0611,471.1241,326.8742,479.37,332.2598" style="stroke:#37474F;stroke-width:1.2;"/></g><!--link AND1 to AND2--><g class="link" data-entity-1="AND1" data-entity-2="AND2" data-source-line="82" data-uid="lnk32" id="link_AND1_AND2"><path d="M493.62,348.7498 C524.95,370.5398 622.9845,438.7335 654.3945,460.5835" fill="none" id="AND1-to-AND2" style="stroke:#37474F;stroke-width:1.2;"/><polygon fill="#37474F" points="659.32,464.0098,654.216,455.5866,655.2154,461.1545,649.6476,462.1539,659.32,464.0098" style="stroke:#37474F;stroke-width:1.2;"/></g><!--link C7 to AND2--><g class="link" data-entity-1="C7" data-entity-2="AND2" data-source-line="83" data-uid="lnk33" id="link_C7_AND2"><path d="M631.28,236.2098 C640.09,291.5998 660.6687,421.1141 666.2287,456.1141" fill="none" id="C7-to-AND2" style="stroke:#37474F;stroke-width:1.2;"/><polygon fill="#37474F" points="667.17,462.0398,669.7085,452.5237,666.3856,457.1017,661.8075,453.7788,667.17,462.0398" style="stroke:#37474F;stroke-width:1.2;"/></g><!--link AND2 to E1--><g class="link" data-entity-1="AND2" data-entity-2="E1" data-source-line="84" data-uid="lnk34" id="link_AND2_E1"><path d="M677.54,476.8398 C688.99,482.3398 709.41,491.8198 727.5,498.3998 C769.34,513.6198 877.2666,544.0523 949.5266,564.0123" fill="none" id="AND2-to-E1" style="stroke:#37474F;stroke-width:1.2;"/><polygon fill="#37474F" points="955.31,565.6098,947.6999,559.3579,950.4905,564.2785,945.5699,567.0691,955.31,565.6098" style="stroke:#37474F;stroke-width:1.2;"/></g><!--link AND2 to E2--><g class="link" data-entity-1="AND2" data-entity-2="E2" data-source-line="85" data-uid="lnk35" id="link_AND2_E2"><path d="M677.57,477.8798 C701.81,492.5098 764.0038,530.0682 807.4238,556.2882" fill="none" id="AND2-to-E2" style="stroke:#37474F;stroke-width:1.2;"/><polygon fill="#37474F" points="812.56,559.3898,806.9235,551.3133,808.2799,556.8052,802.788,558.1616,812.56,559.3898" style="stroke:#37474F;stroke-width:1.2;"/></g><!--link AND1 to AND3--><g class="link" data-entity-1="AND1" data-entity-2="AND3" data-source-line="88" data-uid="lnk36" id="link_AND1_AND3"><path d="M484.81,350.4098 C485.71,373.3898 488.0553,433.4144 488.9553,456.4044" fill="none" id="AND1-to-AND3" style="stroke:#37474F;stroke-width:1.2;"/><polygon fill="#37474F" points="489.19,462.3998,492.8349,453.2502,488.9944,457.4036,484.841,453.5632,489.19,462.3998" style="stroke:#37474F;stroke-width:1.2;"/></g><!--link C7 to NOT1--><g class="link" data-entity-1="C7" data-entity-2="NOT1" data-source-line="89" data-uid="lnk37" id="link_C7_NOT1"><path d="M617.47,236.1798 C605.15,265.3798 587.2211,307.8611 579.2311,326.8111" fill="none" id="C7-to-NOT1" style="stroke:#37474F;stroke-width:1.2;"/><polygon fill="#37474F" points="576.9,332.3398,584.0824,325.6009,578.8426,327.7326,576.7108,322.4928,576.9,332.3398" style="stroke:#37474F;stroke-width:1.2;"/></g><!--link NOT1 to AND3--><g class="link" data-entity-1="NOT1" data-entity-2="AND3" data-source-line="90" data-uid="lnk38" id="link_NOT1_AND3"><path d="M568.25,350.4098 C553.16,373.3898 513.1324,434.3938 498.0424,457.3838" fill="none" id="NOT1-to-AND3" style="stroke:#37474F;stroke-width:1.2;"/><polygon fill="#37474F" points="494.75,462.3998,503.0326,457.0707,497.4936,458.2198,496.3445,452.6809,494.75,462.3998" style="stroke:#37474F;stroke-width:1.2;"/></g><!--link AND3 to E3--><g class="link" data-entity-1="AND3" data-entity-2="E3" data-source-line="91" data-uid="lnk39" id="link_AND3_E3"><path d="M489.5,480.7098 C489.5,497.1698 489.5,528.4798 489.5,553.1698" fill="none" id="AND3-to-E3" style="stroke:#37474F;stroke-width:1.2;"/><polygon fill="#37474F" points="489.5,559.1698,493.5,550.1698,489.5,554.1698,485.5,550.1698,489.5,559.1698" style="stroke:#37474F;stroke-width:1.2;"/></g><!--link C2 to AND4--><g class="link" data-entity-1="C2" data-entity-2="AND4" data-source-line="94" data-uid="lnk40" id="link_C2_AND4"><path d="M1199.08,236.1798 C1163.99,265.5298 1110.8226,310.0206 1088.4026,328.7706" fill="none" id="C2-to-AND4" style="stroke:#37474F;stroke-width:1.2;"/><polygon fill="#37474F" points="1083.8,332.6198,1093.27,329.9144,1087.6355,329.4122,1088.1378,323.7776,1083.8,332.6198" style="stroke:#37474F;stroke-width:1.2;"/></g><!--link C3 to NOT2--><g class="link" data-entity-1="C3" data-entity-2="NOT2" data-source-line="95" data-uid="lnk41" id="link_C3_NOT2"><path d="M863.9,108.4798 C916.32,127.0698 989.58,154.7398 1051.5,184.3998 C1064.36,190.5598 1073.3991,195.8444 1082.3291,201.4144" fill="none" id="C3-to-NOT2" style="stroke:#37474F;stroke-width:1.2;"/><polygon fill="#37474F" points="1087.42,204.5898,1081.9006,196.4328,1083.1776,201.9437,1077.6668,203.2206,1087.42,204.5898" style="stroke:#37474F;stroke-width:1.2;"/><text fill="#000000" font-family="'Lato'" font-size="12" lengthAdjust="spacing" textLength="23.0222" x="982.5" y="151.2439">nulo</text></g><!--link NOT2 to AND4--><g class="link" data-entity-1="NOT2" data-entity-2="AND4" data-source-line="96" data-uid="lnk42" id="link_NOT2_AND4"><path d="M1095.12,220.4098 C1091.17,243.3898 1080.846,303.4964 1076.896,326.4864" fill="none" id="NOT2-to-AND4" style="stroke:#37474F;stroke-width:1.2;"/><polygon fill="#37474F" points="1075.88,332.3998,1081.3462,324.2071,1076.7267,327.472,1073.4618,322.8524,1075.88,332.3998" style="stroke:#37474F;stroke-width:1.2;"/></g><!--link C4 to AND4--><g class="link" data-entity-1="C4" data-entity-2="AND4" data-source-line="97" data-uid="lnk43" id="link_C4_AND4"><path d="M991.38,236.0598 C1003.93,245.2898 1017.59,256.5098 1028.5,268.3998 C1047.35,288.9498 1060.5972,312.8032 1067.7572,326.8632" fill="none" id="C4-to-AND4" style="stroke:#37474F;stroke-width:1.2;"/><polygon fill="#37474F" points="1070.48,332.2098,1069.9603,322.3747,1068.211,327.7543,1062.8314,326.005,1070.48,332.2098" style="stroke:#37474F;stroke-width:1.2;"/></g><!--link C5 to AND4--><g class="link" data-entity-1="C5" data-entity-2="AND4" data-source-line="98" data-uid="lnk44" id="link_C5_AND4"><path d="M842.25,232.4498 C848.03,234.5698 853.87,236.6098 859.5,238.3998 C912.71,255.3398 931.22,244.1098 981.5,268.3998 C1016.8,285.4498 1047.1878,313.2169 1062.3178,328.1369" fill="none" id="C5-to-AND4" style="stroke:#37474F;stroke-width:1.2;"/><polygon fill="#37474F" points="1066.59,332.3498,1062.9903,323.1823,1063.0298,328.8391,1057.3731,328.8786,1066.59,332.3498" style="stroke:#37474F;stroke-width:1.2;"/></g><!--link AND4 to E1--><g class="link" data-entity-1="AND4" data-entity-2="E1" data-source-line="99" data-uid="lnk45" id="link_AND4_E1"><path d="M1083.61,348.8798 C1099.07,360.7398 1128.08,387.2498 1120.5,414.3998 C1104.6,471.3798 1067.3742,523.6274 1042.4642,554.5474" fill="none" id="AND4-to-E1" style="stroke:#37474F;stroke-width:1.2;"/><polygon fill="#37474F" points="1038.7,559.2198,1047.4612,554.7207,1041.8368,555.3262,1041.2314,549.7018,1038.7,559.2198" style="stroke:#37474F;stroke-width:1.2;"/></g><!--link AND4 to E2--><g class="link" data-entity-1="AND4" data-entity-2="E2" data-source-line="100" data-uid="lnk46" id="link_AND4_E2"><path d="M1065.14,348.2698 C1050.34,357.7898 1021.01,377.6298 999.5,398.3998 C945.45,450.6098 896.4717,517.5211 870.9717,554.2511" fill="none" id="AND4-to-E2" style="stroke:#37474F;stroke-width:1.2;"/><polygon fill="#37474F" points="867.55,559.1798,875.9684,554.068,870.4015,555.0726,869.3968,549.5057,867.55,559.1798" style="stroke:#37474F;stroke-width:1.2;"/></g><!--link C2 to OR1--><g class="link" data-entity-1="C2" data-entity-2="OR1" data-source-line="103" data-uid="lnk47" id="link_C2_OR1"><path d="M1227.5,236.1798 C1227.5,265.3798 1227.5,307.3898 1227.5,326.3398" fill="none" id="C2-to-OR1" style="stroke:#37474F;stroke-width:1.2;"/><polygon fill="#37474F" points="1227.5,332.3398,1231.5,323.3398,1227.5,327.3398,1223.5,323.3398,1227.5,332.3398" style="stroke:#37474F;stroke-width:1.2;"/></g><!--link C3 to OR1--><g class="link" data-entity-1="C3" data-entity-2="OR1" data-source-line="104" data-uid="lnk48" id="link_C3_OR1"><path d="M870.04,87.9498 C1000.4,94.9798 1258.97,117.2398 1314.5,184.3998 C1356.98,235.7798 1271.521,307.2646 1241.531,330.0046" fill="none" id="C3-to-OR1" style="stroke:#37474F;stroke-width:1.2;"/><polygon fill="#37474F" points="1236.75,333.6298,1246.3383,331.3793,1240.7342,330.6088,1241.5047,325.0047,1236.75,333.6298" style="stroke:#37474F;stroke-width:1.2;"/></g><!--link OR1 to E4--><g class="link" data-entity-1="OR1" data-entity-2="E4" data-source-line="105" data-uid="lnk49" id="link_OR1_E4"><path d="M1218.44,345.0698 C1170.29,359.2698 948.725,424.6228 847.765,454.3928" fill="none" id="OR1-to-E4" style="stroke:#37474F;stroke-width:1.2;"/><polygon fill="#37474F" points="842.01,456.0898,851.7739,457.381,846.8059,454.6757,849.5112,449.7077,842.01,456.0898" style="stroke:#37474F;stroke-width:1.2;"/><text fill="#000000" font-family="'Lato'" font-size="12" lengthAdjust="spacing" textLength="82.6566" x="1036.5" y="411.2439">Ingreso con Cat</text></g><!--link C1 to OR2--><g class="link" data-entity-1="C1" data-entity-2="OR2" data-source-line="107" data-uid="lnk50" id="link_C1_OR2"><path d="M102.46,236.1798 C131.9,265.3798 176.0207,309.1639 195.1207,328.1139" fill="none" id="C1-to-OR2" style="stroke:#37474F;stroke-width:1.2;"/><polygon fill="#37474F" points="199.38,332.3398,195.8083,323.1614,195.8306,328.8182,190.1737,328.8405,199.38,332.3398" style="stroke:#37474F;stroke-width:1.2;"/></g><!--link C3 to NOT3--><g class="link" data-entity-1="C3" data-entity-2="NOT3" data-source-line="108" data-uid="lnk51" id="link_C3_NOT3"><path d="M718.68,89.2998 C611.42,97.6098 410.78,120.9398 252.5,184.3998 C239.44,189.6398 230.5819,194.836 221.7519,200.686" fill="none" id="C3-to-NOT3" style="stroke:#37474F;stroke-width:1.2;"/><polygon fill="#37474F" points="216.75,203.9998,226.462,202.3637,220.9182,201.2383,222.0436,195.6945,216.75,203.9998" style="stroke:#37474F;stroke-width:1.2;"/><text fill="#000000" font-family="'Lato'" font-size="12" lengthAdjust="spacing" textLength="23.0222" x="397.5" y="151.2439">nulo</text></g><!--link NOT3 to OR2--><g class="link" data-entity-1="NOT3" data-entity-2="OR2" data-source-line="109" data-uid="lnk52" id="link_NOT3_OR2"><path d="M207.5,220.4098 C207.5,243.3898 207.5,303.4098 207.5,326.3998" fill="none" id="NOT3-to-OR2" style="stroke:#37474F;stroke-width:1.2;"/><polygon fill="#37474F" points="207.5,332.3998,211.5,323.3998,207.5,327.3998,203.5,323.3998,207.5,332.3998" style="stroke:#37474F;stroke-width:1.2;"/></g><!--link OR2 to E4--><g class="link" data-entity-1="OR2" data-entity-2="E4" data-source-line="110" data-uid="lnk53" id="link_OR2_E4"><path d="M216.64,345.5398 C249.45,356.7098 364.61,394.8498 462.5,414.3998 C572.67,436.3998 603.78,420.2598 713.5,444.3998 C723.77,446.6598 728.8658,447.9016 739.1158,451.1216" fill="none" id="OR2-to-E4" style="stroke:#37474F;stroke-width:1.2;"/><polygon fill="#37474F" points="744.84,452.9198,737.4525,446.4063,740.0698,451.4213,735.0549,454.0386,744.84,452.9198" style="stroke:#37474F;stroke-width:1.2;"/><text fill="#000000" font-family="'Lato'" font-size="12" lengthAdjust="spacing" textLength="70.2305" x="463.5" y="411.2439">Gasto sin Cat</text></g><!--link C5 to NOT4--><g class="link" data-entity-1="C5" data-entity-2="NOT4" data-source-line="112" data-uid="lnk54" id="link_C5_NOT4"><path d="M793.5,236.1798 C793.5,265.3798 793.5,307.3898 793.5,326.3398" fill="none" id="C5-to-NOT4" style="stroke:#37474F;stroke-width:1.2;"/><polygon fill="#37474F" points="793.5,332.3398,797.5,323.3398,793.5,327.3398,789.5,323.3398,793.5,332.3398" style="stroke:#37474F;stroke-width:1.2;"/><text fill="#000000" font-family="'Lato'" font-size="12" lengthAdjust="spacing" textLength="23.9522" x="794.5" y="281.2439">&lt;= 0</text></g><!--link NOT4 to E4--><g class="link" data-entity-1="NOT4" data-entity-2="E4" data-source-line="113" data-uid="lnk55" id="link_NOT4_E4"><path d="M792.91,350.7398 C792.18,361.6798 790.95,381.4698 790.5,398.3998 C790.07,414.5298 790.4589,426.7013 791.3289,440.7413" fill="none" id="NOT4-to-E4" style="stroke:#37474F;stroke-width:1.2;"/><polygon fill="#37474F" points="791.7,446.7298,795.1357,437.4996,791.3908,441.7394,787.151,437.9944,791.7,446.7298" style="stroke:#37474F;stroke-width:1.2;"/><text fill="#000000" font-family="'Lato'" font-size="12" lengthAdjust="spacing" textLength="57.9004" x="791.5" y="411.2439">Monto Inv.</text></g><!--link C4 to NOT5--><g class="link" data-entity-1="C4" data-entity-2="NOT5" data-source-line="115" data-uid="lnk56" id="link_C4_NOT5"><path d="M946.77,236.1798 C936.04,265.3798 920.4886,307.7577 913.5286,326.7077" fill="none" id="C4-to-NOT5" style="stroke:#37474F;stroke-width:1.2;"/><polygon fill="#37474F" points="911.46,332.3398,918.3176,325.2707,913.1838,327.6464,910.8081,322.5125,911.46,332.3398" style="stroke:#37474F;stroke-width:1.2;"/><text fill="#000000" font-family="'Lato'" font-size="12" lengthAdjust="spacing" textLength="40.6083" x="935.5" y="281.2439">inactiva</text></g><!--link NOT5 to E4--><g class="link" data-entity-1="NOT5" data-entity-2="E4" data-source-line="116" data-uid="lnk57" id="link_NOT5_E4"><path d="M902.82,350.7398 C893.28,364.5298 873.14,392.7198 853.5,414.3998 C843.36,425.5898 835.7685,433.0825 825.1485,442.7425" fill="none" id="NOT5-to-E4" style="stroke:#37474F;stroke-width:1.2;"/><polygon fill="#37474F" points="820.71,446.7798,830.0593,443.6829,824.4088,443.4154,824.6762,437.7649,820.71,446.7798" style="stroke:#37474F;stroke-width:1.2;"/><text fill="#000000" font-family="'Lato'" font-size="12" lengthAdjust="spacing" textLength="60.1564" x="866.5" y="411.2439">Cuenta Inv.</text></g><!--link C6 to NOT6--><g class="link" data-entity-1="C6" data-entity-2="NOT6" data-source-line="118" data-uid="lnk58" id="link_C6_NOT6"><path d="M357.47,236.1798 C361.12,265.3798 366.3754,307.4362 368.7454,326.3862" fill="none" id="C6-to-NOT6" style="stroke:#37474F;stroke-width:1.2;"/><polygon fill="#37474F" points="369.49,332.3398,372.3422,322.913,368.8695,327.3785,364.404,323.9058,369.49,332.3398" style="stroke:#37474F;stroke-width:1.2;"/><text fill="#000000" font-family="'Lato'" font-size="12" lengthAdjust="spacing" textLength="40.6083" x="364.5" y="281.2439">inactiva</text></g><!--link NOT6 to E4--><g class="link" data-entity-1="NOT6" data-entity-2="E4" data-source-line="119" data-uid="lnk59" id="link_NOT6_E4"><path d="M379.78,346.1998 C392.94,351.5198 417.84,361.3298 439.5,368.3998 C559.64,407.6098 592.49,407.9698 713.5,444.3998 C723.71,447.4698 728.89,449.0671 739.24,452.4071" fill="none" id="NOT6-to-E4" style="stroke:#37474F;stroke-width:1.2;"/><polygon fill="#37474F" points="744.95,454.2498,737.6134,447.6791,740.1916,452.7143,735.1565,455.2925,744.95,454.2498" style="stroke:#37474F;stroke-width:1.2;"/><text fill="#000000" font-family="'Lato'" font-size="12" lengthAdjust="spacing" textLength="40.4343" x="604.5" y="411.2439">Cat Inv.</text></g><!--link E1 to AND5--><g class="link" data-entity-1="E1" data-entity-2="AND5" data-source-line="122" data-uid="lnk60" id="link_E1_AND5"><path d="M955.28,605.8098 C871.69,633.4698 736.3161,678.2544 699.3061,690.5044" fill="none" id="E1-to-AND5" style="stroke:#37474F;stroke-width:1.2;"/><polygon fill="#37474F" points="693.61,692.3898,703.411,693.3592,698.3567,690.8187,700.8972,685.7644,693.61,692.3898" style="stroke:#37474F;stroke-width:1.2;"/></g><!--link C1 to AND5--><g class="link" data-entity-1="C1" data-entity-2="AND5" data-source-line="123" data-uid="lnk61" id="link_C1_AND5"><path d="M82.04,235.9298 C85.58,261.5598 90.5,303.7998 90.5,340.3998 C90.5,340.3998 90.5,340.3998 90.5,584.8998 C90.5,647.0498 593.618,688.3659 669.188,694.2259" fill="none" id="C1-to-AND5" style="stroke:#37474F;stroke-width:1.2;"/><polygon fill="#37474F" points="675.17,694.6898,666.5062,690.006,670.185,694.3032,665.8877,697.982,675.17,694.6898" style="stroke:#37474F;stroke-width:1.2;"/></g><!--link ExceedCond to AND5--><g class="link" data-entity-1="ExceedCond" data-entity-2="AND5" data-source-line="125" data-uid="lnk63" id="link_ExceedCond_AND5"><path d="M684.5,601.1998 C684.5,625.2198 684.5,663.1998 684.5,681.2998" fill="none" id="ExceedCond-to-AND5" style="stroke:#37474F;stroke-width:1.2;"/><polygon fill="#37474F" points="684.5,687.2998,688.5,678.2998,684.5,682.2998,680.5,678.2998,684.5,687.2998" style="stroke:#37474F;stroke-width:1.2;"/></g><!--link AND5 to E5--><g class="link" data-entity-1="AND5" data-entity-2="E5" data-source-line="126" data-uid="lnk64" id="link_AND5_E5"><path d="M684.5,705.7098 C684.5,722.1698 684.5,753.4798 684.5,778.1698" fill="none" id="AND5-to-E5" style="stroke:#37474F;stroke-width:1.2;"/><polygon fill="#37474F" points="684.5,784.1698,688.5,775.1698,684.5,779.1698,680.5,775.1698,684.5,784.1698" style="stroke:#37474F;stroke-width:1.2;"/></g><!--SRC=[dLLjRzis4FwkNt5pFYm6ciwIIBanKWEEGnK1KgU8WsrV2PbsYCXYG4bfsc4_QRzYVwn7KTIRxGse0Gkdupt7vyZdJhyKJs8lu2NbClFoPvczSCttSCsJvvrMPRPPgbHfE8khNoSYV-8RzLLcEzZoD1UTbOtOyZ8jOfKLAuwvHtUyKAFZ0MlvNO0VUDwlmF92fWeN8LKvQ94KFDkLnZvVyZBdEVm6R8jkbOyxoUh0LC1V7WnvNrqPg9ZFuOo5SH3Vc12bDq8FbmF_Cef3N3QiXekJ6p9T-0tsyKacpvd8S_3VK_GUsvTj3TLrcIGOL-t_8QRiShZ_GHXPBc8wwVCu2FAlAGicFy67QQsqoH37x9gnuspQ84B2C3h6fGcvdlfBV_aJJFxWEaFnM2vno2R7kVJ2BZzCZfvC9uX5r9-SEfc_3sMMI9tK6bFxbrBeWlVKPTQFImltMh8uzlkyuOoIY4qNNPfm5ax9bCIrpqhUFs230j-c8ddYUMV_1HxqrtwMmMAtHEoZGXR8zvFcMmLLsrpOde7p1x6JUQ6hpHurptAU958XSco8r2rsph92yuqvXBQnHaj_1fzuRhAmFx-mrPgDHu3HIn-QBkd51pEupNPQv8YuNItlFpj0S08Gpf118NPAVuFR6tZHwXN9AWiAJu08WagH5HnuKiXN3jz0l25CM1Wv0QCp-8pte60E4nj9JqH63Qj__pcnING2Eft1cgSR1ObbEFzeDxMeQGTb3h_H7jofdKnG0hNmHelL3VWL22s_vmwSE-YvG-SEUsxYtAHntp_KgUyV_Aupg9rjtjNzOnsAbjzp1yxTZmwTE-ovYNEJdfiwD-sv8-UEUgLGLmgjMiX-4-0SpriEbSjGkOtmsPl4G7i5p4XtC5XxG9Jm8YbApFcTQtkN5XZy3p0qsi_BxLOc4gy-ne6HL_FImaCO3D4U62NzEqzBqG6G_mIWc1UfaGvymNOhKKQcJTbR8ZRICQPmC2cjwZ9Kifa0PYJO_gwF2FlSVuUbZZriyOkBkHKVDc9hauvDEtRKsfvvkjV0GzKtjdbKRyplsC4XBPoO6xpSwaJjWGepfS9nBtdeabVoD8zsnJni-l0mlPjIXtK7BWDnTHkDmmmo_5vubTq6a8vDMziyEbMIarLMDriLHfgjJLFMEniJ_nPEe1skYShCXFBSDPcURTc67RPXiux_Df6zzLowDDHXpUBLHvXubTt4sy5vcxs-zrpLfcjnHMPsFdhLUmEe1tIDY1mY6Y2Y3e8NTVZmb8u8_PpHiSUQswOTlT9kdwpBFRV5vZZsx-HUrWFST8h0BtgsyLgpJM4UbXhrVW00]--></g></svg>