<svg xmlns="http://www.w3.org/2000/svg" xmlns:xlink="http://www.w3.org/1999/xlink" contentStyleType="text/css" data-diagram-type="STATE" height="584px" preserveAspectRatio="none" style="width:912px;height:584px;background:#FFFFFF;" version="1.1" viewBox="0 0 912 584" width="912px" zoomAndPan="magnify"><title>Diagrama de Transici&#243;n de Estados del Presupuesto</title><defs/><g><g class="title" data-source-line="38"><text fill="#000000" font-family="'Lato'" font-size="22" font-weight="bold" lengthAdjust="spacing" textLength="505.0284" x="199.2774" y="36.7138">Diagrama de Transici&#243;n de Estados del Presupuesto</text></g><g id="UNASSIGNED"><rect fill="#EEEEEE" height="50" rx="12.5" ry="12.5" style="stroke:#9E9E9E;stroke-width:1.5;" width="96.4765" x="322.4" y="153.3998"/><line style="stroke:#9E9E9E;stroke-width:1.5;" x1="322.4" x2="418.8765" y1="177.7999" y2="177.7999"/><text fill="#616161" font-family="'Lato'" font-size="12" lengthAdjust="spacing" textLength="76.4765" x="332.4" y="170.2439">UNASSIGNED</text></g><g id="UNDER_LIMIT"><rect fill="#E8F5E9" height="50" rx="12.5" ry="12.5" style="stroke:#4CAF50;stroke-width:1.5;" width="98.1806" x="321.4" y="278.3998"/><line style="stroke:#4CAF50;stroke-width:1.5;" x1="321.4" x2="419.5806" y1="302.7999" y2="302.7999"/><text fill="#1B5E20" font-family="'Lato'" font-size="12" lengthAdjust="spacing" textLength="78.1806" x="331.4" y="295.2439">UNDER_LIMIT</text></g><g id="AT_LIMIT"><rect fill="#FFF3E0" height="50" rx="12.5" ry="12.5" style="stroke:#FF9800;stroke-width:1.5;" width="71.8284" x="232.4" y="403.3998"/><line style="stroke:#FF9800;stroke-width:1.5;" x1="232.4" x2="304.2284" y1="427.7999" y2="427.7999"/><text fill="#E65100" font-family="'Lato'" font-size="12" lengthAdjust="spacing" textLength="51.8284" x="242.4" y="420.2439">AT_LIMIT</text></g><g id="EXCEEDED"><rect fill="#FFEBEE" height="50" rx="12.5" ry="12.5" style="stroke:#F44336;stroke-width:1.5;" width="81.7765" x="431.4" y="528.3998"/><line style="stroke:#F44336;stroke-width:1.5;" x1="431.4" x2="513.1765" y1="552.7999" y2="552.7999"/><text fill="#B71C1C" font-family="'Lato'" font-size="12" lengthAdjust="spacing" textLength="61.7765" x="441.4" y="545.2439">EXCEEDED</text></g><ellipse cx="370.4" cy="68.3998" fill="#FFFFFF" rx="10" ry="10" style="stroke:#000000;stroke-width:1;"/><!--link *start* to UNASSIGNED--><g class="link" data-entity-1=".start." data-entity-2="UNASSIGNED" data-source-line="45" data-uid="lnk3" id="link_.start._UNASSIGNED"><path d="M370.4,78.6098 C370.4,94.9298 370.4,123.4398 370.4,147.0298" fill="none" id="*start*-to-UNASSIGNED" style="stroke:#37474F;stroke-width:1.5;"/><polygon fill="#37474F" points="370.4,153.0298,374.4,144.0298,370.4,148.0298,366.4,144.0298,370.4,153.0298" style="stroke:#37474F;stroke-width:1.5;"/><text fill="#263238" font-family="'Lato'" font-size="11" lengthAdjust="spacing" textLength="69.29" x="371.4" y="120.257">Iniciar periodo</text></g><!--link UNASSIGNED to UNDER_LIMIT--><g class="link" data-entity-1="UNASSIGNED" data-entity-2="UNDER_LIMIT" data-source-line="47" data-uid="lnk4" id="link_UNASSIGNED_UNDER_LIMIT"><path d="M370.4,203.4098 C370.4,224.9398 370.4,250.3898 370.4,272.0298" fill="none" id="UNASSIGNED-to-UNDER_LIMIT" style="stroke:#37474F;stroke-width:1.5;"/><polygon fill="#37474F" points="370.4,278.0298,374.4,269.0298,370.4,273.0298,366.4,269.0298,370.4,278.0298" style="stroke:#37474F;stroke-width:1.5;"/><text fill="#263238" font-family="'Lato'" font-size="11" lengthAdjust="spacing" textLength="155.6137" x="371.4" y="245.257">assign_budget(limit_amount &gt; 0)</text></g><!--link UNDER_LIMIT to UNDER_LIMIT--><g class="link" data-entity-1="UNDER_LIMIT" data-entity-2="UNDER_LIMIT" data-source-line="49" data-uid="lnk5" id="link_UNDER_LIMIT_UNDER_LIMIT"><path d="M419.58,291.8198 C438.59,291.3098 454.4,295.1698 454.4,303.3998 C454.4,311.6298 444.5878,315.6507 425.5778,315.1407" fill="none" id="UNDER_LIMIT-to-UNDER_LIMIT" style="stroke:#37474F;stroke-width:1.5;"/><polygon fill="#37474F" points="419.58,314.9798,428.4695,319.2197,424.5782,315.1139,428.684,311.2226,419.58,314.9798" style="stroke:#37474F;stroke-width:1.5;"/><text fill="#263238" font-family="'Lato'" font-size="11" lengthAdjust="spacing" textLength="158.0063" x="460.4" y="307.757">register_expense() [total &lt; limite]</text></g><!--link UNDER_LIMIT to AT_LIMIT--><g class="link" data-entity-1="UNDER_LIMIT" data-entity-2="AT_LIMIT" data-source-line="50" data-uid="lnk6" id="link_UNDER_LIMIT_AT_LIMIT"><path d="M321.35,305.5298 C242.32,308.5098 92.3,319.2998 59.4,358.3998 C11,415.9298 154.4413,425.6661 226.2113,427.1461" fill="none" id="UNDER_LIMIT-to-AT_LIMIT" style="stroke:#37474F;stroke-width:1.5;"/><polygon fill="#37474F" points="232.21,427.2698,223.2944,423.0851,227.2111,427.1667,223.1294,431.0834,232.21,427.2698" style="stroke:#37474F;stroke-width:1.5;"/><text fill="#263238" font-family="'Lato'" font-size="11" lengthAdjust="spacing" textLength="164.3864" x="60.4" y="370.257">register_expense() [total == limite]</text></g><!--link AT_LIMIT to UNDER_LIMIT--><g class="link" data-entity-1="AT_LIMIT" data-entity-2="UNDER_LIMIT" data-source-line="59" data-uid="lnk12" id="link_AT_LIMIT_UNDER_LIMIT"><path d="M261.03,403.3798 C258.18,389.2898 257.28,371.7098 265.4,358.3998 C277.73,338.1898 294.7135,327.3829 315.7735,319.2429" fill="none" id="AT_LIMIT-to-UNDER_LIMIT" style="stroke:#37474F;stroke-width:1.5;"/><polygon fill="#37474F" points="321.37,317.0798,311.5332,316.5935,316.7062,318.8824,314.4173,324.0555,321.37,317.0798" style="stroke:#37474F;stroke-width:1.5;"/><text fill="#263238" font-family="'Lato'" font-size="11" lengthAdjust="spacing" textLength="179.8031" x="266.4" y="370.257">assign_budget() [nuevo_limite &gt; total]</text></g><!--link UNDER_LIMIT to EXCEEDED--><g class="link" data-entity-1="UNDER_LIMIT" data-entity-2="EXCEEDED" data-source-line="51" data-uid="lnk7" id="link_UNDER_LIMIT_EXCEEDED"><path d="M419.49,327.9098 C431.45,335.9398 442.93,346.0798 450.4,358.3998 C482.91,412.0198 480.5593,483.494 476.3993,522.314" fill="none" id="UNDER_LIMIT-to-EXCEEDED" style="stroke:#37474F;stroke-width:1.5;"/><polygon fill="#37474F" points="475.76,528.2798,480.6962,519.7572,476.2928,523.3083,472.7417,518.9048,475.76,528.2798" style="stroke:#37474F;stroke-width:1.5;"/><text fill="#263238" font-family="'Lato'" font-size="11" lengthAdjust="spacing" textLength="158.0063" x="477.4" y="432.757">register_expense() [total &gt; limite]</text></g><!--link EXCEEDED to UNDER_LIMIT--><g class="link" data-entity-1="EXCEEDED" data-entity-2="UNDER_LIMIT" data-source-line="58" data-uid="lnk11" id="link_EXCEEDED_UNDER_LIMIT"><path d="M513.41,538.5598 C576.69,514.9498 686.62,463.5498 644.4,403.3998 C593.4,330.7498 489.5309,311.658 425.4909,306.538" fill="none" id="EXCEEDED-to-UNDER_LIMIT" style="stroke:#37474F;stroke-width:1.5;"/><polygon fill="#37474F" points="419.51,306.0598,428.1626,310.7643,424.4941,306.4583,428.8002,302.7898,419.51,306.0598" style="stroke:#37474F;stroke-width:1.5;"/><text fill="#263238" font-family="'Lato'" font-size="11" lengthAdjust="spacing" textLength="179.8031" x="654.4" y="432.757">assign_budget() [nuevo_limite &gt; total]</text></g><!--link AT_LIMIT to EXCEEDED--><g class="link" data-entity-1="AT_LIMIT" data-entity-2="EXCEEDED" data-source-line="53" data-uid="lnk8" id="link_AT_LIMIT_EXCEEDED"><path d="M273.09,453.5098 C277.15,468.3498 284.49,486.7098 297.4,498.3998 C334.51,532.0198 386.245,543.9763 425.135,548.7663" fill="none" id="AT_LIMIT-to-EXCEEDED" style="stroke:#37474F;stroke-width:1.5;"/><polygon fill="#37474F" points="431.09,549.4998,422.6465,544.4296,426.1275,548.8886,421.6685,552.3696,431.09,549.4998" style="stroke:#37474F;stroke-width:1.5;"/><text fill="#263238" font-family="'Lato'" font-size="11" lengthAdjust="spacing" textLength="147.1271" x="298.4" y="495.257">register_expense() [monto &gt; 0]</text></g><!--link EXCEEDED to EXCEEDED--><g class="link" data-entity-1="EXCEEDED" data-entity-2="EXCEEDED" data-source-line="55" data-uid="lnk9" id="link_EXCEEDED_EXCEEDED"><path d="M513.44,547.6898 C532.14,547.1098 548.4,549.0098 548.4,553.3998 C548.4,557.7898 538.1371,559.8758 519.4371,559.2958" fill="none" id="EXCEEDED-to-EXCEEDED" style="stroke:#37474F;stroke-width:1.5;"/><polygon fill="#37474F" points="513.44,559.1098,522.3117,563.3869,518.4376,559.2648,522.5597,555.3907,513.44,559.1098" style="stroke:#37474F;stroke-width:1.5;"/><text fill="#263238" font-family="'Lato'" font-size="11" lengthAdjust="spacing" textLength="147.1271" x="554.4" y="557.757">register_expense() [monto &gt; 0]</text></g><!--link EXCEEDED to EXCEEDED--><g class="link" data-entity-1="EXCEEDED" data-entity-2="EXCEEDED" data-source-line="56" data-uid="lnk10" id="link_EXCEEDED_EXCEEDED"><path d="M513.41,545.7098 C583.51,538.5798 707.4,541.1398 707.4,553.3998 C707.4,565.6598 589.4792,568.8269 519.3792,561.6969" fill="none" id="EXCEEDED-to-EXCEEDED-1" style="stroke:#37474F;stroke-width:1.5;"/><polygon fill="#37474F" points="513.41,561.0898,521.959,565.98,518.3843,561.5958,522.7686,558.021,513.41,561.0898" style="stroke:#37474F;stroke-width:1.5;"/><text fill="#263238" font-family="'Lato'" font-size="11" lengthAdjust="spacing" textLength="186.1832" x="713.4" y="557.757">assign_budget() [nuevo_limite &lt;= total]</text></g><!--SRC=[dLFRZjem57pFLvnk7xfKsYg1S5j1f12S2ecYgh1IfTKAkSG4Ys0Zs-ckMlMh-WdziJgNXbm0jKrU4i_CcUFZyIkr8mS2nmXJPiWzPKSiy04cUBCF1OzPuF682tZjfq-98NSuuC-KXR35aIGb921R74VAvqmjiAvzCyUAtvmdBEat0bRRCDu0aef6N8CGSGb4AbrVbWqLLWI-6z1i3dd8zwq4uI8W8byTcgxj8hsQ6ELhxLwdtHaKpDMERlQCI0dMkwvURHOVZHuObfA6Z0IEewtIfsfLvmnHyfQDwuoUbRmN3NNXEJrGbHeE_2uQDWtB7Djp_QvPDomph4aNjSqBXgugUFgCEyYikrK8mu5Pioh1gDUrp4i-w6L3I91DmFVHf3d72iEsEvrUrQcCJ_gMPtd6Zrfsi0GbC9DqGxa-MRZTHcIpmx9LYf8h17_E4z7fsttRhuFLODJ0PfxE4Cv7lu2pu5k6eQYA24mf3ZMEaosiylP__MJ9ByfkWlwCuACWCZx6-d9mmyWknCF2NIvdxnTe2jMK5VWKVLhFPnzcAwYc8YUugm8j3ZA7q6SFeMbQ-JHvmtXy-mHtTqxP-XvcJBUC1Ho9e3pGxPNGZ7pgunwoDjTVuY0awZPANDVueBEYm06pbQXFzAPSa91AHSIQl1m9a-Is1O-AAnp12D9YvAbHeTZdDVbuV55V3EEQtYdaHk7t5-A3JWHFTgvr1VNVT9TarKbh3Ol9LxxEseJH6DB6wxxNJgjUm_bJehBZ_whm6m00]--></g></svg>